<svg xmlns="http://www.w3.org/2000/svg" width="32" height="32" viewBox="0 0 32 32"><path d="M14.017 9.302h3.934V7.826h-3.934v1.476zm3.905.491h-3.905s-6.425 6.333-6.425 12.542c0 6.579 6.732 7.102 6.732 7.102s2.008.333 3.257 0c0 0 6.826-.8 6.826-7.07.001-6.272-6.485-12.574-6.485-12.574zm.289 13.33c-.158.32-.371.588-.643.802a2.801 2.801 0 01-.949.484c-.046.014-.096.019-.143.031v1.092h-.983v-.964l-.036.003a4.223 4.223 0 01-1.412-.231c-.184-.064-.337-.131-.459-.201s-.212-.132-.266-.186a.461.461 0 01-.116-.234 2.222 2.222 0 01-.034-.441c0-.129.004-.237.013-.325s.021-.158.041-.213a.233.233 0 01.074-.116.186.186 0 01.109-.034c.059 0 .141.034.247.103s.242.145.409.228c.167.084.365.159.597.229.231.068.499.103.803.103.2 0 .379-.024.537-.072s.293-.115.403-.203a.856.856 0 00.253-.325c.059-.13.088-.273.088-.433a.765.765 0 00-.15-.472 1.517 1.517 0 00-.391-.35c-.16-.102-.342-.197-.546-.287s-.415-.185-.631-.284a5.57 5.57 0 01-.631-.341c-.204-.127-.387-.278-.547-.455s-.29-.387-.391-.628a2.264 2.264 0 01-.149-.868c0-.388.072-.728.215-1.021s.338-.537.581-.73a2.49 2.49 0 01.862-.434c.17-.049.346-.085.526-.108v-1.035h.983v1.034c.04.005.079.003.118.009.191.029.371.068.537.118s.314.105.443.167.215.113.256.155c.043.041.07.076.086.105a.638.638 0 01.037.116c.01.048.018.108.021.182a5.057 5.057 0 01-.004.579 1.087 1.087 0 01-.031.206c-.014.055-.035.094-.062.119s-.062.037-.109.037a.523.523 0 01-.219-.086 4.651 4.651 0 00-.367-.189 3.687 3.687 0 00-.506-.187 2.256 2.256 0 00-.631-.083c-.18 0-.336.021-.469.065a.974.974 0 00-.335.18.717.717 0 00-.199.277.893.893 0 00-.065.342c0 .18.049.335.146.466s.229.248.394.35c.164.103.351.198.56.287.208.09.42.185.637.284.217.101.428.214.637.341s.395.279.557.456.293.385.393.624c.1.24.15.521.15.847a2.51 2.51 0 01-.239 1.115zm-.32-15.789l1.998-4.919s-1.26 1.046-1.998 1.046-1.907-1.015-1.907-1.015-1.26 1.015-1.998 1.015c-.737 0-1.937-.984-1.937-.984l2.029 4.857h3.813z"/></svg>